<svg width="157" height="90" viewBox="0 0 157 90" fill="none" xmlns="http://www.w3.org/2000/svg">
<path d="M6.22266 26V10.8477H0.5625V8.82031H14.1797V10.8477H8.49609V26H6.22266ZM15.3398 26V13.5547H17.2383V15.4414C17.7227 14.5586 18.168 13.9766 18.5742 13.6953C18.9883 13.4141 19.4414 13.2734 19.9336 13.2734C20.6445 13.2734 21.3672 13.5 22.1016 13.9531L21.375 15.9102C20.8594 15.6055 20.3438 15.4531 19.8281 15.4531C19.3672 15.4531 18.9531 15.5938 18.5859 15.875C18.2188 16.1484 17.957 16.5312 17.8008 17.0234C17.5664 17.7734 17.4492 18.5938 17.4492 19.4844V26H15.3398ZM31.875 21.9922L34.0547 22.2617C33.7109 23.5352 33.0742 24.5234 32.1445 25.2266C31.2148 25.9297 30.0273 26.2812 28.582 26.2812C26.7617 26.2812 25.3164 25.7227 24.2461 24.6055C23.1836 23.4805 22.6523 21.9062 22.6523 19.8828C22.6523 17.7891 23.1914 16.1641 24.2695 15.0078C25.3477 13.8516 26.7461 13.2734 28.4648 13.2734C30.1289 13.2734 31.4883 13.8398 32.543 14.9727C33.5977 16.1055 34.125 17.6992 34.125 19.7539C34.125 19.8789 34.1211 20.0664 34.1133 20.3164H24.832C24.9102 21.6836 25.2969 22.7305 25.9922 23.457C26.6875 24.1836 27.5547 24.5469 28.5938 24.5469C29.3672 24.5469 30.0273 24.3438 30.5742 23.9375C31.1211 23.5312 31.5547 22.8828 31.875 21.9922ZM24.9492 18.582H31.8984C31.8047 17.5352 31.5391 16.75 31.1016 16.2266C30.4297 15.4141 29.5586 15.0078 28.4883 15.0078C27.5195 15.0078 26.7031 15.332 26.0391 15.9805C25.3828 16.6289 25.0195 17.4961 24.9492 18.582ZM36.7148 26V13.5547H38.6133V15.3242C39.5273 13.957 40.8477 13.2734 42.5742 13.2734C43.3242 13.2734 44.0117 13.4102 44.6367 13.6836C45.2695 13.9492 45.7422 14.3008 46.0547 14.7383C46.3672 15.1758 46.5859 15.6953 46.7109 16.2969C46.7891 16.6875 46.8281 17.3711 46.8281 18.3477V26H44.7188V18.4297C44.7188 17.5703 44.6367 16.9297 44.4727 16.5078C44.3086 16.0781 44.0156 15.7383 43.5938 15.4883C43.1797 15.2305 42.6914 15.1016 42.1289 15.1016C41.2305 15.1016 40.4531 15.3867 39.7969 15.957C39.1484 16.5273 38.8242 17.6094 38.8242 19.2031V26H36.7148ZM58.1484 26V24.4297C57.3594 25.6641 56.1992 26.2812 54.668 26.2812C53.6758 26.2812 52.7617 26.0078 51.9258 25.4609C51.0977 24.9141 50.4531 24.1523 49.9922 23.1758C49.5391 22.1914 49.3125 21.0625 49.3125 19.7891C49.3125 18.5469 49.5195 17.4219 49.9336 16.4141C50.3477 15.3984 50.9688 14.6211 51.7969 14.082C52.625 13.543 53.5508 13.2734 54.5742 13.2734C55.3242 13.2734 55.9922 13.4336 56.5781 13.7539C57.1641 14.0664 57.6406 14.4766 58.0078 14.9844V8.82031H60.1055V26H58.1484ZM51.4805 19.7891C51.4805 21.3828 51.8164 22.5742 52.4883 23.3633C53.1602 24.1523 53.9531 24.5469 54.8672 24.5469C55.7891 24.5469 56.5703 24.1719 57.2109 23.4219C57.8594 22.6641 58.1836 21.5117 58.1836 19.9648C58.1836 18.2617 57.8555 17.0117 57.1992 16.2148C56.543 15.418 55.7344 15.0195 54.7734 15.0195C53.8359 15.0195 53.0508 15.4023 52.418 16.168C51.793 16.9336 51.4805 18.1406 51.4805 19.7891ZM63.4453 11.2461V8.82031H65.5547V11.2461H63.4453ZM63.4453 26V13.5547H65.5547V26H63.4453ZM68.7773 26V13.5547H70.6758V15.3242C71.5898 13.957 72.9102 13.2734 74.6367 13.2734C75.3867 13.2734 76.0742 13.4102 76.6992 13.6836C77.332 13.9492 77.8047 14.3008 78.1172 14.7383C78.4297 15.1758 78.6484 15.6953 78.7734 16.2969C78.8516 16.6875 78.8906 17.3711 78.8906 18.3477V26H76.7812V18.4297C76.7812 17.5703 76.6992 16.9297 76.5352 16.5078C76.3711 16.0781 76.0781 15.7383 75.6562 15.4883C75.2422 15.2305 74.7539 15.1016 74.1914 15.1016C73.293 15.1016 72.5156 15.3867 71.8594 15.957C71.2109 16.5273 70.8867 17.6094 70.8867 19.2031V26H68.7773ZM81.75 27.0312L83.8008 27.3359C83.8867 27.9688 84.125 28.4297 84.5156 28.7188C85.0391 29.1094 85.7539 29.3047 86.6602 29.3047C87.6367 29.3047 88.3906 29.1094 88.9219 28.7188C89.4531 28.3281 89.8125 27.7812 90 27.0781C90.1094 26.6484 90.1602 25.7461 90.1523 24.3711C89.2305 25.457 88.082 26 86.707 26C84.9961 26 83.6719 25.3828 82.7344 24.1484C81.7969 22.9141 81.3281 21.4336 81.3281 19.707C81.3281 18.5195 81.543 17.4258 81.9727 16.4258C82.4023 15.418 83.0234 14.6406 83.8359 14.0938C84.6562 13.5469 85.6172 13.2734 86.7188 13.2734C88.1875 13.2734 89.3984 13.8672 90.3516 15.0547V13.5547H92.2969V24.3125C92.2969 26.25 92.0977 27.6211 91.6992 28.4258C91.3086 29.2383 90.6836 29.8789 89.8242 30.3477C88.9727 30.8164 87.9219 31.0508 86.6719 31.0508C85.1875 31.0508 83.9883 30.7148 83.0742 30.043C82.1602 29.3789 81.7188 28.375 81.75 27.0312ZM83.4961 19.5547C83.4961 21.1875 83.8203 22.3789 84.4688 23.1289C85.1172 23.8789 85.9297 24.2539 86.9062 24.2539C87.875 24.2539 88.6875 23.8828 89.3438 23.1406C90 22.3906 90.3281 21.2188 90.3281 19.625C90.3281 18.1016 89.9883 16.9531 89.3086 16.1797C88.6367 15.4062 87.8242 15.0195 86.8711 15.0195C85.9336 15.0195 85.1367 15.4023 84.4805 16.168C83.8242 16.9258 83.4961 18.0547 83.4961 19.5547Z" fill="white"/>
<path d="M27.8574 75H22.1973L19.9473 69.1465H9.64648L7.51953 75H2L12.0371 49.2305H17.5391L27.8574 75ZM18.2773 64.8047L14.7266 55.2422L11.2461 64.8047H18.2773ZM42.8867 75V72.2051C42.207 73.2012 41.3105 73.9863 40.1973 74.5605C39.0957 75.1348 37.9297 75.4219 36.6992 75.4219C35.4453 75.4219 34.3203 75.1465 33.3242 74.5957C32.3281 74.0449 31.6074 73.2715 31.1621 72.2754C30.7168 71.2793 30.4941 69.9023 30.4941 68.1445V56.332H35.4336V64.9102C35.4336 67.5352 35.5215 69.1465 35.6973 69.7441C35.8848 70.3301 36.2188 70.7988 36.6992 71.1504C37.1797 71.4902 37.7891 71.6602 38.5273 71.6602C39.3711 71.6602 40.127 71.4316 40.7949 70.9746C41.4629 70.5059 41.9199 69.9316 42.166 69.252C42.4121 68.5605 42.5352 66.8789 42.5352 64.207V56.332H47.4746V75H42.8867ZM68.8848 61.8516L64.0156 62.7305C63.8516 61.7578 63.4766 61.0254 62.8906 60.5332C62.3164 60.041 61.5664 59.7949 60.6406 59.7949C59.4102 59.7949 58.4258 60.2227 57.6875 61.0781C56.9609 61.9219 56.5977 63.3398 56.5977 65.332C56.5977 67.5469 56.9668 69.1113 57.7051 70.0254C58.4551 70.9395 59.457 71.3965 60.7109 71.3965C61.6484 71.3965 62.416 71.1328 63.0137 70.6055C63.6113 70.0664 64.0332 69.1465 64.2793 67.8457L69.1309 68.6719C68.627 70.8984 67.6602 72.5801 66.2305 73.7168C64.8008 74.8535 62.8848 75.4219 60.4824 75.4219C57.752 75.4219 55.5723 74.5605 53.9434 72.8379C52.3262 71.1152 51.5176 68.7305 51.5176 65.6836C51.5176 62.6016 52.332 60.2051 53.9609 58.4941C55.5898 56.7715 57.793 55.9102 60.5703 55.9102C62.8438 55.9102 64.6484 56.4023 65.9844 57.3867C67.332 58.3594 68.2988 59.8477 68.8848 61.8516ZM81.207 56.332V60.2695H77.832V67.793C77.832 69.3164 77.8613 70.207 77.9199 70.4648C77.9902 70.7109 78.1367 70.916 78.3594 71.0801C78.5938 71.2441 78.875 71.3262 79.2031 71.3262C79.6602 71.3262 80.3223 71.168 81.1895 70.8516L81.6113 74.6836C80.4629 75.1758 79.1621 75.4219 77.709 75.4219C76.8184 75.4219 76.0156 75.2754 75.3008 74.9824C74.5859 74.6777 74.0586 74.291 73.7188 73.8223C73.3906 73.3418 73.1621 72.6973 73.0332 71.8887C72.9277 71.3145 72.875 70.1543 72.875 68.4082V60.2695H70.6074V56.332H72.875V52.623L77.832 49.7402V56.332H81.207ZM84.6348 53.8008V49.2305H89.5742V53.8008H84.6348ZM84.6348 75V56.332H89.5742V75H84.6348ZM93.5117 65.4023C93.5117 63.7617 93.916 62.1738 94.7246 60.6387C95.5332 59.1035 96.6758 57.9316 98.1523 57.123C99.6406 56.3145 101.299 55.9102 103.127 55.9102C105.951 55.9102 108.266 56.8301 110.07 58.6699C111.875 60.498 112.777 62.8125 112.777 65.6133C112.777 68.4375 111.863 70.7812 110.035 72.6445C108.219 74.4961 105.928 75.4219 103.162 75.4219C101.451 75.4219 99.8164 75.0352 98.2578 74.2617C96.7109 73.4883 95.5332 72.3574 94.7246 70.8691C93.916 69.3691 93.5117 67.5469 93.5117 65.4023ZM98.5742 65.666C98.5742 67.5176 99.0137 68.9355 99.8926 69.9199C100.771 70.9043 101.855 71.3965 103.145 71.3965C104.434 71.3965 105.512 70.9043 106.379 69.9199C107.258 68.9355 107.697 67.5059 107.697 65.6309C107.697 63.8027 107.258 62.3965 106.379 61.4121C105.512 60.4277 104.434 59.9355 103.145 59.9355C101.855 59.9355 100.771 60.4277 99.8926 61.4121C99.0137 62.3965 98.5742 63.8145 98.5742 65.666ZM133.643 75H128.703V65.4727C128.703 63.457 128.598 62.1562 128.387 61.5703C128.176 60.9727 127.83 60.5098 127.35 60.1816C126.881 59.8535 126.312 59.6895 125.645 59.6895C124.789 59.6895 124.021 59.9238 123.342 60.3926C122.662 60.8613 122.193 61.4824 121.936 62.2559C121.689 63.0293 121.566 64.459 121.566 66.5449V75H116.627V56.332H121.215V59.0742C122.844 56.9648 124.895 55.9102 127.367 55.9102C128.457 55.9102 129.453 56.1094 130.355 56.5078C131.258 56.8945 131.938 57.3926 132.395 58.002C132.863 58.6113 133.186 59.3027 133.361 60.0762C133.549 60.8496 133.643 61.957 133.643 63.3984V75ZM136.93 69.6738L141.887 68.918C142.098 69.8789 142.525 70.6113 143.17 71.1152C143.814 71.6074 144.717 71.8535 145.877 71.8535C147.154 71.8535 148.115 71.6191 148.76 71.1504C149.193 70.8223 149.41 70.3828 149.41 69.832C149.41 69.457 149.293 69.1465 149.059 68.9004C148.812 68.666 148.262 68.4492 147.406 68.25C143.422 67.3711 140.896 66.5684 139.83 65.8418C138.354 64.834 137.615 63.4336 137.615 61.6406C137.615 60.0234 138.254 58.6641 139.531 57.5625C140.809 56.4609 142.789 55.9102 145.473 55.9102C148.027 55.9102 149.926 56.3262 151.168 57.1582C152.41 57.9902 153.266 59.2207 153.734 60.8496L149.076 61.7109C148.877 60.9844 148.496 60.4277 147.934 60.041C147.383 59.6543 146.592 59.4609 145.561 59.4609C144.26 59.4609 143.328 59.6426 142.766 60.0059C142.391 60.2637 142.203 60.5977 142.203 61.0078C142.203 61.3594 142.367 61.6582 142.695 61.9043C143.141 62.2324 144.676 62.6953 147.301 63.293C149.938 63.8906 151.777 64.623 152.82 65.4902C153.852 66.3691 154.367 67.5938 154.367 69.1641C154.367 70.875 153.652 72.3457 152.223 73.5762C150.793 74.8066 148.678 75.4219 145.877 75.4219C143.334 75.4219 141.318 74.9062 139.83 73.875C138.354 72.8438 137.387 71.4434 136.93 69.6738Z" fill="white"/>
</svg>
