<svg width="129" height="36" viewBox="0 0 129 36" fill="none" xmlns="http://www.w3.org/2000/svg">
<path d="M7.12891 26L0.988281 8.82031H4.75L9.09766 21.5352L13.3047 8.82031H16.9844L10.832 26H7.12891ZM18.2852 11.8672V8.82031H21.5781V11.8672H18.2852ZM18.2852 26V13.5547H21.5781V26H18.2852ZM32.1719 22.0391L35.4531 22.5898C35.0312 23.793 34.3633 24.7109 33.4492 25.3438C32.543 25.9688 31.4062 26.2812 30.0391 26.2812C27.875 26.2812 26.2734 25.5742 25.2344 24.1602C24.4141 23.0273 24.0039 21.5977 24.0039 19.8711C24.0039 17.8086 24.543 16.1953 25.6211 15.0312C26.6992 13.8594 28.0625 13.2734 29.7109 13.2734C31.5625 13.2734 33.0234 13.8867 34.0938 15.1133C35.1641 16.332 35.6758 18.2031 35.6289 20.7266H27.3789C27.4023 21.7031 27.668 22.4648 28.1758 23.0117C28.6836 23.5508 29.3164 23.8203 30.0742 23.8203C30.5898 23.8203 31.0234 23.6797 31.375 23.3984C31.7266 23.1172 31.9922 22.6641 32.1719 22.0391ZM32.3594 18.7109C32.3359 17.7578 32.0898 17.0352 31.6211 16.543C31.1523 16.043 30.582 15.793 29.9102 15.793C29.1914 15.793 28.5977 16.0547 28.1289 16.5781C27.6602 17.1016 27.4297 17.8125 27.4375 18.7109H32.3594ZM40.6445 26L36.707 13.5547H39.9062L42.2383 21.7109L44.3828 13.5547H47.5586L49.6328 21.7109L52.0117 13.5547H55.2578L51.2617 26H48.0977L45.9531 17.9961L43.8438 26H40.6445ZM66.1445 17.3516L63.1562 16.8125C63.4922 15.6094 64.0703 14.7188 64.8906 14.1406C65.7109 13.5625 66.9297 13.2734 68.5469 13.2734C70.0156 13.2734 71.1094 13.4492 71.8281 13.8008C72.5469 14.1445 73.0508 14.5859 73.3398 15.125C73.6367 15.6562 73.7852 16.6367 73.7852 18.0664L73.75 21.9102C73.75 23.0039 73.8008 23.8125 73.9023 24.3359C74.0117 24.8516 74.2109 25.4062 74.5 26H71.2422C71.1562 25.7812 71.0508 25.457 70.9258 25.0273C70.8711 24.832 70.832 24.7031 70.8086 24.6406C70.2461 25.1875 69.6445 25.5977 69.0039 25.8711C68.3633 26.1445 67.6797 26.2812 66.9531 26.2812C65.6719 26.2812 64.6602 25.9336 63.918 25.2383C63.1836 24.543 62.8164 23.6641 62.8164 22.6016C62.8164 21.8984 62.9844 21.2734 63.3203 20.7266C63.6562 20.1719 64.125 19.75 64.7266 19.4609C65.3359 19.1641 66.2109 18.9062 67.3516 18.6875C68.8906 18.3984 69.957 18.1289 70.5508 17.8789V17.5508C70.5508 16.918 70.3945 16.4688 70.082 16.2031C69.7695 15.9297 69.1797 15.793 68.3125 15.793C67.7266 15.793 67.2695 15.9102 66.9414 16.1445C66.6133 16.3711 66.3477 16.7734 66.1445 17.3516ZM70.5508 20.0234C70.1289 20.1641 69.4609 20.332 68.5469 20.5273C67.6328 20.7227 67.0352 20.9141 66.7539 21.1016C66.3242 21.4062 66.1094 21.793 66.1094 22.2617C66.1094 22.7227 66.2812 23.1211 66.625 23.457C66.9688 23.793 67.4062 23.9609 67.9375 23.9609C68.5312 23.9609 69.0977 23.7656 69.6367 23.375C70.0352 23.0781 70.2969 22.7148 70.4219 22.2852C70.5078 22.0039 70.5508 21.4688 70.5508 20.6797V20.0234ZM77.043 26V8.82031H80.3359V26H77.043ZM83.7227 26V8.82031H87.0156V26H83.7227Z" fill="white"/>
<path d="M110 18H124" stroke="white" stroke-width="2" stroke-linecap="round" stroke-linejoin="round"/>
<path d="M117 11L124 18L117 25" stroke="white" stroke-width="2" stroke-linecap="round" stroke-linejoin="round"/>
</svg>
